<svg width="1200" height="900" viewBox="0 0 1200 900" fill="none" xmlns="http://www.w3.org/2000/svg">
<rect width="1200" height="900" rx="48" fill="#0E1630"/>
<circle cx="960" cy="210" r="240" fill="#005FF0" fill-opacity="0.16"/>
<circle cx="180" cy="770" r="290" fill="#E7EDF5" fill-opacity="0.08"/>
<rect x="100" y="110" width="1000" height="680" rx="38" fill="#151730" stroke="#2B3D72" stroke-width="2"/>
<rect x="150" y="160" width="338" height="580" rx="30" fill="#182754"/>
<rect x="192" y="208" width="168" height="18" rx="9" fill="#E7EDF5" fill-opacity="0.84"/>
<rect x="192" y="242" width="120" height="12" rx="6" fill="#E7EDF5" fill-opacity="0.28"/>
<rect x="192" y="298" width="254" height="92" rx="24" fill="#E7EDF5" fill-opacity="0.08"/>
<rect x="220" y="332" width="74" height="18" rx="9" fill="#67A6FF"/>
<rect x="192" y="422" width="254" height="92" rx="24" fill="#005FF0"/>
<rect x="220" y="456" width="92" height="18" rx="9" fill="#E7EDF5"/>
<rect x="192" y="546" width="254" height="146" rx="24" fill="#E7EDF5" fill-opacity="0.08"/>
<rect x="224" y="588" width="132" height="14" rx="7" fill="#E7EDF5" fill-opacity="0.78"/>
<rect x="224" y="616" width="102" height="10" rx="5" fill="#E7EDF5" fill-opacity="0.24"/>
<path d="M224 654H412" stroke="#E7EDF5" stroke-opacity="0.12" stroke-width="10" stroke-linecap="round"/>
<path d="M224 678H380" stroke="#E7EDF5" stroke-opacity="0.12" stroke-width="10" stroke-linecap="round"/>
<rect x="528" y="160" width="522" height="272" rx="32" fill="#E7EDF5"/>
<rect x="572" y="212" width="212" height="20" rx="10" fill="#151730"/>
<rect x="572" y="246" width="128" height="12" rx="6" fill="#4C608C"/>
<rect x="572" y="304" width="436" height="82" rx="24" fill="#D7E6FF"/>
<circle cx="626" cy="344" r="28" fill="#005FF0"/>
<path d="M622 334H632V354H622V334Z" fill="#E7EDF5"/>
<path d="M612 344H642" stroke="#E7EDF5" stroke-width="8" stroke-linecap="round"/>
<rect x="698" y="328" width="122" height="18" rx="9" fill="#151730"/>
<rect x="698" y="356" width="176" height="10" rx="5" fill="#58709F"/>
<rect x="528" y="464" width="522" height="276" rx="32" fill="#182754"/>
<rect x="570" y="514" width="156" height="18" rx="9" fill="#E7EDF5" fill-opacity="0.84"/>
<rect x="570" y="548" width="126" height="12" rx="6" fill="#E7EDF5" fill-opacity="0.26"/>
<path d="M570 604H1008" stroke="#E7EDF5" stroke-opacity="0.12" stroke-width="12" stroke-linecap="round"/>
<path d="M570 640H974" stroke="#E7EDF5" stroke-opacity="0.12" stroke-width="12" stroke-linecap="round"/>
<path d="M570 676H886" stroke="#67A6FF" stroke-width="12" stroke-linecap="round"/>
</svg>
