<svg width="1200" height="900" viewBox="0 0 1200 900" fill="none" xmlns="http://www.w3.org/2000/svg">
<rect width="1200" height="900" rx="48" fill="#0F1734"/>
<circle cx="987" cy="170" r="223" fill="#005FF0" fill-opacity="0.18"/>
<circle cx="220" cy="760" r="280" fill="#E7EDF5" fill-opacity="0.08"/>
<rect x="90" y="110" width="1020" height="680" rx="34" fill="#151730" stroke="#2D3F73" stroke-width="2"/>
<rect x="130" y="150" width="940" height="64" rx="20" fill="#162248"/>
<circle cx="178" cy="182" r="9" fill="#E7EDF5" fill-opacity="0.7"/>
<circle cx="206" cy="182" r="9" fill="#E7EDF5" fill-opacity="0.45"/>
<circle cx="234" cy="182" r="9" fill="#E7EDF5" fill-opacity="0.25"/>
<rect x="170" y="174" width="212" height="16" rx="8" fill="#E7EDF5" fill-opacity="0.12"/>
<rect x="160" y="260" width="260" height="470" rx="28" fill="#182754"/>
<rect x="190" y="304" width="126" height="18" rx="9" fill="#E7EDF5" fill-opacity="0.88"/>
<rect x="190" y="342" width="174" height="12" rx="6" fill="#E7EDF5" fill-opacity="0.34"/>
<rect x="190" y="398" width="200" height="84" rx="22" fill="#005FF0"/>
<rect x="190" y="514" width="200" height="84" rx="22" fill="#E7EDF5" fill-opacity="0.08"/>
<rect x="190" y="630" width="200" height="56" rx="18" fill="#E7EDF5" fill-opacity="0.08"/>
<rect x="460" y="260" width="570" height="200" rx="30" fill="#E7EDF5"/>
<rect x="500" y="300" width="228" height="22" rx="11" fill="#151730"/>
<rect x="500" y="338" width="178" height="14" rx="7" fill="#465989"/>
<rect x="500" y="384" width="180" height="32" rx="16" fill="#005FF0"/>
<rect x="748" y="300" width="230" height="118" rx="24" fill="#D7E6FF"/>
<path d="M778 388C808 332 836 320 868 348C900 376 928 372 948 332" stroke="#005FF0" stroke-width="10" stroke-linecap="round"/>
<rect x="460" y="492" width="270" height="198" rx="28" fill="#182754"/>
<rect x="498" y="534" width="148" height="16" rx="8" fill="#E7EDF5" fill-opacity="0.82"/>
<rect x="498" y="566" width="176" height="12" rx="6" fill="#E7EDF5" fill-opacity="0.32"/>
<rect x="498" y="614" width="192" height="20" rx="10" fill="#005FF0" fill-opacity="0.9"/>
<rect x="760" y="492" width="270" height="198" rx="28" fill="#182754"/>
<rect x="798" y="534" width="148" height="16" rx="8" fill="#E7EDF5" fill-opacity="0.82"/>
<rect x="798" y="566" width="176" height="12" rx="6" fill="#E7EDF5" fill-opacity="0.32"/>
<rect x="798" y="614" width="110" height="20" rx="10" fill="#67A6FF"/>
</svg>
