<svg width="1200" height="900" viewBox="0 0 1200 900" fill="none" xmlns="http://www.w3.org/2000/svg">
<rect width="1200" height="900" rx="48" fill="#10162F"/>
<circle cx="186" cy="166" r="214" fill="#005FF0" fill-opacity="0.16"/>
<circle cx="1014" cy="756" r="268" fill="#E7EDF5" fill-opacity="0.08"/>
<rect x="110" y="118" width="980" height="664" rx="36" fill="#151730" stroke="#2A3A6C" stroke-width="2"/>
<rect x="156" y="166" width="368" height="566" rx="30" fill="#182754"/>
<rect x="196" y="214" width="180" height="18" rx="9" fill="#E7EDF5" fill-opacity="0.84"/>
<rect x="196" y="248" width="122" height="12" rx="6" fill="#E7EDF5" fill-opacity="0.28"/>
<rect x="196" y="304" width="288" height="74" rx="22" fill="#E7EDF5"/>
<rect x="216" y="326" width="78" height="18" rx="9" fill="#151730"/>
<rect x="216" y="352" width="118" height="10" rx="5" fill="#6A7EA9"/>
<rect x="196" y="410" width="288" height="120" rx="22" fill="#0F204A"/>
<rect x="226" y="448" width="46" height="44" rx="12" fill="#005FF0"/>
<rect x="288" y="430" width="168" height="14" rx="7" fill="#E7EDF5" fill-opacity="0.78"/>
<rect x="288" y="458" width="132" height="10" rx="5" fill="#E7EDF5" fill-opacity="0.26"/>
<rect x="288" y="482" width="92" height="10" rx="5" fill="#E7EDF5" fill-opacity="0.26"/>
<rect x="196" y="562" width="288" height="130" rx="22" fill="#E7EDF5" fill-opacity="0.06"/>
<path d="M226 637L272 602L318 616L370 560L420 584L454 548" stroke="#67A6FF" stroke-width="10" stroke-linecap="round" stroke-linejoin="round"/>
<rect x="566" y="166" width="474" height="264" rx="30" fill="#E7EDF5"/>
<rect x="608" y="214" width="214" height="20" rx="10" fill="#151730"/>
<rect x="608" y="248" width="136" height="12" rx="6" fill="#4C608C"/>
<rect x="608" y="304" width="390" height="78" rx="22" fill="#D7E6FF"/>
<rect x="638" y="330" width="126" height="18" rx="9" fill="#005FF0"/>
<rect x="792" y="330" width="82" height="18" rx="9" fill="#9BBEFF"/>
<rect x="902" y="330" width="66" height="18" rx="9" fill="#151730" fill-opacity="0.15"/>
<rect x="566" y="462" width="474" height="270" rx="30" fill="#182754"/>
<rect x="606" y="512" width="192" height="18" rx="9" fill="#E7EDF5" fill-opacity="0.84"/>
<rect x="606" y="546" width="142" height="12" rx="6" fill="#E7EDF5" fill-opacity="0.28"/>
<rect x="606" y="596" width="394" height="18" rx="9" fill="#E7EDF5" fill-opacity="0.1"/>
<rect x="606" y="630" width="358" height="18" rx="9" fill="#E7EDF5" fill-opacity="0.1"/>
<rect x="606" y="664" width="280" height="18" rx="9" fill="#005FF0" fill-opacity="0.9"/>
</svg>
